<svg width="24" height="25" viewBox="0 0 24 25" fill="none" xmlns="http://www.w3.org/2000/svg">
<path d="M15.5799 12.6664C15.5799 14.6464 13.9799 16.2464 11.9999 16.2464C10.0199 16.2464 8.41992 14.6464 8.41992 12.6664C8.41992 10.6864 10.0199 9.08643 11.9999 9.08643C13.9799 9.08643 15.5799 10.6864 15.5799 12.6664Z" stroke="#292D32" stroke-width="1.5" stroke-linecap="round" stroke-linejoin="round"/>
<path d="M11.9998 20.9367C15.5298 20.9367 18.8198 18.8567 21.1098 15.2567C22.0098 13.8467 22.0098 11.4767 21.1098 10.0667C18.8198 6.46672 15.5298 4.38672 11.9998 4.38672C8.46984 4.38672 5.17984 6.46672 2.88984 10.0667C1.98984 11.4767 1.98984 13.8467 2.88984 15.2567C5.17984 18.8567 8.46984 20.9367 11.9998 20.9367Z" stroke="#292D32" stroke-width="1.5" stroke-linecap="round" stroke-linejoin="round"/>
</svg>
