<svg width="44" height="44" viewBox="0 0 44 44" fill="none" xmlns="http://www.w3.org/2000/svg">
<path d="M0 22C0 9.84974 9.84974 0 22 0C34.1503 0 44 9.84974 44 22C44 34.1503 34.1503 44 22 44C9.84974 44 0 34.1503 0 22Z" fill="#4ADE80"/>
<path d="M31.5599 20.7401L30.1999 19.1601C29.9399 18.8601 29.7299 18.3001 29.7299 17.9001V16.2001C29.7299 15.1401 28.8599 14.2701 27.7999 14.2701H26.0999C25.7099 14.2701 25.1399 14.0601 24.8399 13.8001L23.2599 12.4401C22.5699 11.8501 21.4399 11.8501 20.7399 12.4401L19.1699 13.8101C18.8699 14.0601 18.2999 14.2701 17.9099 14.2701H16.1799C15.1199 14.2701 14.2499 15.1401 14.2499 16.2001V17.9101C14.2499 18.3001 14.0399 18.8601 13.7899 19.1601L12.4399 20.7501C11.8599 21.4401 11.8599 22.5601 12.4399 23.2501L13.7899 24.8401C14.0399 25.1401 14.2499 25.7001 14.2499 26.0901V27.8001C14.2499 28.8601 15.1199 29.7301 16.1799 29.7301H17.9099C18.2999 29.7301 18.8699 29.9401 19.1699 30.2001L20.7499 31.5601C21.4399 32.1501 22.5699 32.1501 23.2699 31.5601L24.8499 30.2001C25.1499 29.9401 25.7099 29.7301 26.1099 29.7301H27.8099C28.8699 29.7301 29.7399 28.8601 29.7399 27.8001V26.1001C29.7399 25.7101 29.9499 25.1401 30.2099 24.8401L31.5699 23.2601C32.1499 22.5701 32.1499 21.4301 31.5599 20.7401ZM26.6799 22.0001L25.5099 25.5601C25.3599 26.1501 24.7299 26.6301 24.0899 26.6301H22.2399C21.9199 26.6301 21.4699 26.5201 21.2699 26.3201L19.7999 25.1701C19.7699 25.8101 19.4799 26.0801 18.7699 26.0801H18.2899C17.5499 26.0801 17.2499 25.7901 17.2499 25.0901V20.3101C17.2499 19.6101 17.5499 19.3201 18.2899 19.3201H18.7799C19.5199 19.3201 19.8199 19.6101 19.8199 20.3101V20.6701L21.7599 17.7901C21.9599 17.4801 22.4699 17.2601 22.8999 17.4301C23.3699 17.5901 23.6699 18.1101 23.5699 18.5701L23.3299 20.1301C23.3099 20.2701 23.3399 20.4001 23.4299 20.5001C23.5099 20.5901 23.6299 20.6501 23.7599 20.6501H25.7099C26.0899 20.6501 26.4099 20.8001 26.5999 21.0701C26.7699 21.3301 26.7999 21.6601 26.6799 22.0001Z" fill="white"/>
</svg>
