<svg width="44" height="44" viewBox="0 0 44 44" fill="none" xmlns="http://www.w3.org/2000/svg">
<path d="M0 22C0 9.84974 9.84974 0 22 0C34.1503 0 44 9.84974 44 22C44 34.1503 34.1503 44 22 44C9.84974 44 0 34.1503 0 22Z" fill="#FACC15"/>
<path d="M27.6 15.3098L21.95 12.2698C21.35 11.9498 20.64 11.9498 20.04 12.2698L14.4 15.3098C13.99 15.5398 13.73 15.9798 13.73 16.4598C13.73 16.9498 13.98 17.3898 14.4 17.6098L20.05 20.6498C20.35 20.8098 20.68 20.8898 21 20.8898C21.32 20.8898 21.66 20.8098 21.95 20.6498L27.6 17.6098C28.01 17.3898 28.27 16.9498 28.27 16.4598C28.27 15.9798 28.01 15.5398 27.6 15.3098Z" fill="white"/>
<path d="M19.12 21.7096L13.87 19.0896C13.46 18.8796 13 18.9096 12.61 19.1396C12.23 19.3796 12 19.7896 12 20.2396V25.1996C12 26.0596 12.48 26.8296 13.25 27.2196L18.5 29.8396C18.68 29.9296 18.88 29.9796 19.08 29.9796C19.31 29.9796 19.55 29.9096 19.76 29.7896C20.14 29.5496 20.37 29.1396 20.37 28.6896V23.7296C20.36 22.8696 19.88 22.0996 19.12 21.7096Z" fill="white"/>
<path d="M30.0001 20.2396V22.6996C29.5201 22.5596 29.0101 22.4996 28.5001 22.4996C27.1401 22.4996 25.8101 22.9696 24.7601 23.8096C23.3201 24.9396 22.5001 26.6496 22.5001 28.4996C22.5001 28.9896 22.5601 29.4796 22.6901 29.9496C22.5401 29.9296 22.3901 29.8696 22.2501 29.7796C21.8701 29.5496 21.6401 29.1396 21.6401 28.6896V23.7296C21.6401 22.8696 22.1201 22.0996 22.8801 21.7096L28.1301 19.0896C28.5401 18.8796 29.0001 18.9096 29.3901 19.1396C29.7701 19.3796 30.0001 19.7896 30.0001 20.2396Z" fill="white"/>
<path d="M31.98 25.65C31.16 24.64 29.91 24 28.5 24C27.44 24 26.46 24.37 25.69 24.99C24.65 25.81 24 27.08 24 28.5C24 29.91 24.64 31.16 25.65 31.98C26.42 32.62 27.42 33 28.5 33C29.64 33 30.67 32.57 31.47 31.88C32.4 31.05 33 29.85 33 28.5C33 27.42 32.62 26.42 31.98 25.65ZM29.53 28.78C29.53 29.04 29.39 29.29 29.17 29.42L27.76 30.26C27.64 30.33 27.51 30.37 27.37 30.37C27.12 30.37 26.87 30.24 26.73 30.01C26.52 29.65 26.63 29.19 26.99 28.98L28.03 28.36V27.1C28.03 26.69 28.37 26.35 28.78 26.35C29.19 26.35 29.53 26.69 29.53 27.1V28.78Z" fill="white"/>
</svg>
