<svg width="44" height="44" viewBox="0 0 44 44" fill="none" xmlns="http://www.w3.org/2000/svg">
<path d="M0 22C0 9.84974 9.84974 0 22 0C34.1503 0 44 9.84974 44 22C44 34.1503 34.1503 44 22 44C9.84974 44 0 34.1503 0 22Z" fill="#F87171"/>
<path d="M25.0002 32.7502C24.7302 32.7502 24.4802 32.6002 24.3502 32.3702C24.2202 32.1302 24.2202 31.8502 24.3602 31.6102L25.4102 29.8602C25.6202 29.5102 26.0802 29.3902 26.4402 29.6002C26.8002 29.8102 26.9102 30.2702 26.7002 30.6302L26.4302 31.0802C29.1902 30.4302 31.2602 27.9502 31.2602 24.9902C31.2602 24.5802 31.6002 24.2402 32.0102 24.2402C32.4202 24.2402 32.7602 24.5802 32.7602 24.9902C32.7502 29.2702 29.2702 32.7502 25.0002 32.7502Z" fill="white"/>
<path d="M12 19.75C11.59 19.75 11.25 19.41 11.25 19C11.25 14.73 14.73 11.25 19 11.25C19.27 11.25 19.52 11.4 19.65 11.63C19.78 11.87 19.78 12.15 19.64 12.39L18.59 14.14C18.38 14.49 17.92 14.61 17.56 14.39C17.21 14.18 17.09 13.72 17.31 13.36L17.58 12.91C14.81 13.56 12.75 16.04 12.75 19C12.75 19.41 12.41 19.75 12 19.75Z" fill="white"/>
<path d="M26.4002 18.21L22.6402 16.18C22.2402 15.97 21.7702 15.97 21.3702 16.18L17.6002 18.21C17.3302 18.36 17.1602 18.65 17.1602 18.97C17.1602 19.3 17.3302 19.59 17.6002 19.74L21.3602 21.77C21.5602 21.88 21.7802 21.93 22.0002 21.93C22.2202 21.93 22.4402 21.88 22.6402 21.77L26.4002 19.74C26.6702 19.59 26.8402 19.3 26.8402 18.97C26.8402 18.65 26.6702 18.36 26.4002 18.21Z" fill="white"/>
<path d="M20.74 22.4699L17.24 20.7199C16.97 20.5899 16.66 20.5999 16.4 20.7599C16.15 20.9199 16 21.1899 16 21.4899V24.7999C16 25.3699 16.32 25.8899 16.83 26.1399L20.33 27.8899C20.45 27.9499 20.58 27.9799 20.72 27.9799C20.88 27.9799 21.03 27.9399 21.17 27.8499C21.43 27.6899 21.58 27.4199 21.58 27.1199V23.8099C21.57 23.2399 21.26 22.7299 20.74 22.4699Z" fill="white"/>
<path d="M27.5899 20.7599C27.3299 20.5999 27.0199 20.5899 26.7499 20.7199L23.2499 22.4699C22.7399 22.7299 22.4199 23.2399 22.4199 23.8099V27.1199C22.4199 27.4199 22.5699 27.6899 22.8299 27.8499C22.9699 27.9399 23.1199 27.9799 23.2799 27.9799C23.4099 27.9799 23.5399 27.9499 23.6699 27.8899L27.1699 26.1399C27.6799 25.8799 27.9999 25.3699 27.9999 24.7999V21.4899C27.9999 21.1899 27.8499 20.9199 27.5899 20.7599Z" fill="white"/>
</svg>
