<svg width="37" height="38" viewBox="0 0 37 38" fill="none" xmlns="http://www.w3.org/2000/svg">
<circle cx="18.5" cy="19" r="18.5" fill="#FF5C00"/>
<path d="M26.5 15.5C27.8807 15.5 29 14.3807 29 13C29 11.6193 27.8807 10.5 26.5 10.5C25.1193 10.5 24 11.6193 24 13C24 14.3807 25.1193 15.5 26.5 15.5Z" fill="white"/>
<path d="M26.5 15.5C27.8807 15.5 29 14.3807 29 13C29 11.6193 27.8807 10.5 26.5 10.5C25.1193 10.5 24 11.6193 24 13C24 14.3807 25.1193 15.5 26.5 15.5Z" fill="white"/>
<path d="M27.72 16.81C27.02 17.03 26.25 17.07 25.45 16.87C24.11 16.52 23.02 15.45 22.65 14.11C22.47 13.46 22.46 12.82 22.57 12.24C22.7 11.6 22.25 11 21.61 11H14C11 11 9 12.5 9 16V23C9 26.5 11 28 14 28H24C27 28 29 26.5 29 23V17.76C29 17.1 28.36 16.6 27.72 16.81ZM22.52 18.65L21.34 19.59C20.68 20.12 19.84 20.38 19 20.38C18.16 20.38 17.31 20.12 16.66 19.59L13.53 17.09C13.21 16.83 13.16 16.35 13.41 16.03C13.67 15.71 14.14 15.65 14.46 15.91L17.59 18.41C18.35 19.02 19.64 19.02 20.4 18.41L21.58 17.47C21.9 17.21 22.38 17.26 22.63 17.59C22.89 17.91 22.84 18.39 22.52 18.65Z" fill="white"/>
</svg>
