<svg width="90" height="82" viewBox="0 0 90 82" fill="none" xmlns="http://www.w3.org/2000/svg">
<ellipse cx="45.3209" cy="41" rx="44.3512" ry="41" fill="#ADFFD3" fill-opacity="0.38"/>
<path d="M47.4174 49.2366H43.9763C41.542 49.2366 39.5469 47.3233 39.5469 44.9658C39.5469 44.2653 40.1692 43.6845 40.9196 43.6845C41.6701 43.6845 42.2924 44.2653 42.2924 44.9658C42.2924 45.9053 43.0429 46.6741 43.9763 46.6741H47.4174C48.1312 46.6741 48.6987 46.0762 48.6987 45.3416C48.6987 44.4191 48.4241 44.2824 47.8018 44.0774L42.2924 42.2837C41.121 41.9078 39.5469 41.1049 39.5469 38.5937C39.5469 36.4583 41.3589 34.6987 43.5737 34.6987H47.0147C49.4491 34.6987 51.4442 36.6121 51.4442 38.9695C51.4442 39.6699 50.8219 40.2508 50.0714 40.2508C49.321 40.2508 48.6987 39.6699 48.6987 38.9695C48.6987 38.03 47.9482 37.2612 47.0147 37.2612H43.5737C42.8598 37.2612 42.2924 37.8591 42.2924 38.5937C42.2924 39.5162 42.567 39.6528 43.1893 39.8578L48.6987 41.6516C49.8701 42.0274 51.4442 42.8303 51.4442 45.3416C51.4442 47.4941 49.6321 49.2366 47.4174 49.2366Z" fill="#00C637"/>
<path d="M45.4953 50.9448C44.7449 50.9448 44.1226 50.364 44.1226 49.6636V34.2886C44.1226 33.5882 44.7449 33.0073 45.4953 33.0073C46.2458 33.0073 46.8681 33.5882 46.8681 34.2886V49.6636C46.8681 50.364 46.2458 50.9448 45.4953 50.9448Z" fill="#00C637"/>
<path d="M45.4957 60.3405C34.6417 60.3405 25.8193 52.1063 25.8193 41.9759C25.8193 31.8455 34.6417 23.6113 45.4957 23.6113C46.2461 23.6113 46.8684 24.1922 46.8684 24.8926C46.8684 25.593 46.2461 26.1738 45.4957 26.1738C36.1609 26.1738 28.5649 33.2634 28.5649 41.9759C28.5649 50.6884 36.1609 57.778 45.4957 57.778C54.8305 57.778 62.4265 50.6884 62.4265 41.9759C62.4265 41.2755 63.0488 40.6947 63.7992 40.6947C64.5497 40.6947 65.172 41.2755 65.172 41.9759C65.172 52.1063 56.3497 60.3405 45.4957 60.3405Z" fill="#00C637"/>
<path d="M61.9686 34.7157H54.6472C53.8967 34.7157 53.2744 34.1348 53.2744 33.4344V26.6011C53.2744 25.9007 53.8967 25.3198 54.6472 25.3198C55.3976 25.3198 56.02 25.9007 56.02 26.6011V32.1532H61.9686C62.7191 32.1532 63.3414 32.734 63.3414 33.4344C63.3414 34.1348 62.7191 34.7157 61.9686 34.7157Z" fill="#00C637"/>
<path d="M54.6465 34.7166C54.2987 34.7166 53.951 34.597 53.6764 34.3408C53.1456 33.8453 53.1456 33.0253 53.6764 32.5299L62.8282 23.9883C63.359 23.4928 64.2376 23.4928 64.7684 23.9883C65.2992 24.4837 65.2992 25.3037 64.7684 25.7991L55.6166 34.3408C55.342 34.597 54.9943 34.7166 54.6465 34.7166Z" fill="#00C637"/>
</svg>
