<svg width="37" height="38" viewBox="0 0 37 38" fill="none" xmlns="http://www.w3.org/2000/svg">
<circle cx="18.5" cy="18.6665" r="18.5" fill="#205BF3"/>
<path d="M26.5 15.1665C27.8807 15.1665 29 14.0472 29 12.6665C29 11.2858 27.8807 10.1665 26.5 10.1665C25.1193 10.1665 24 11.2858 24 12.6665C24 14.0472 25.1193 15.1665 26.5 15.1665Z" fill="white"/>
<path d="M26.5 15.1665C27.8807 15.1665 29 14.0472 29 12.6665C29 11.2858 27.8807 10.1665 26.5 10.1665C25.1193 10.1665 24 11.2858 24 12.6665C24 14.0472 25.1193 15.1665 26.5 15.1665Z" fill="white"/>
<path d="M27.72 16.4765C27.02 16.6965 26.25 16.7365 25.45 16.5365C24.11 16.1865 23.02 15.1165 22.65 13.7765C22.47 13.1265 22.46 12.4865 22.57 11.9065C22.7 11.2665 22.25 10.6665 21.61 10.6665H14C11 10.6665 9 12.1665 9 15.6665V22.6665C9 26.1665 11 27.6665 14 27.6665H24C27 27.6665 29 26.1665 29 22.6665V17.4265C29 16.7665 28.36 16.2665 27.72 16.4765ZM22.52 18.3165L21.34 19.2565C20.68 19.7865 19.84 20.0465 19 20.0465C18.16 20.0465 17.31 19.7865 16.66 19.2565L13.53 16.7565C13.21 16.4965 13.16 16.0165 13.41 15.6965C13.67 15.3765 14.14 15.3165 14.46 15.5765L17.59 18.0765C18.35 18.6865 19.64 18.6865 20.4 18.0765L21.58 17.1365C21.9 16.8765 22.38 16.9265 22.63 17.2565C22.89 17.5765 22.84 18.0565 22.52 18.3165Z" fill="white"/>
</svg>
