<svg width="37" height="38" viewBox="0 0 37 38" fill="none" xmlns="http://www.w3.org/2000/svg">
<circle cx="18.5" cy="19.333" r="18.5" fill="#00AC4F"/>
<path d="M26.5 15.833C27.8807 15.833 29 14.7137 29 13.333C29 11.9523 27.8807 10.833 26.5 10.833C25.1193 10.833 24 11.9523 24 13.333C24 14.7137 25.1193 15.833 26.5 15.833Z" fill="white"/>
<path d="M26.5 15.833C27.8807 15.833 29 14.7137 29 13.333C29 11.9523 27.8807 10.833 26.5 10.833C25.1193 10.833 24 11.9523 24 13.333C24 14.7137 25.1193 15.833 26.5 15.833Z" fill="white"/>
<path d="M27.72 17.143C27.02 17.363 26.25 17.403 25.45 17.203C24.11 16.853 23.02 15.783 22.65 14.443C22.47 13.793 22.46 13.153 22.57 12.573C22.7 11.933 22.25 11.333 21.61 11.333H14C11 11.333 9 12.833 9 16.333V23.333C9 26.833 11 28.333 14 28.333H24C27 28.333 29 26.833 29 23.333V18.093C29 17.433 28.36 16.933 27.72 17.143ZM22.52 18.983L21.34 19.923C20.68 20.453 19.84 20.713 19 20.713C18.16 20.713 17.31 20.453 16.66 19.923L13.53 17.423C13.21 17.163 13.16 16.683 13.41 16.363C13.67 16.043 14.14 15.983 14.46 16.243L17.59 18.743C18.35 19.353 19.64 19.353 20.4 18.743L21.58 17.803C21.9 17.543 22.38 17.593 22.63 17.923C22.89 18.243 22.84 18.723 22.52 18.983Z" fill="white"/>
</svg>
